<svg id="Camada_1" data-name="Camada 1" xmlns="http://www.w3.org/2000/svg" viewBox="150 150 300 300"><defs><style>.cls-1{fill:#ec8f6a;}</style></defs><path class="cls-1" d="M300,426a74.73,74.73,0,0,1-33.22-7.84l-84.91-42.46a22.47,22.47,0,0,1,0-40.19L237,308l36.63-102.57a28.06,28.06,0,0,1,52.84,0L363.05,308l55.08,27.54a22.47,22.47,0,0,1,0,40.19l-84.92,42.46A74.66,74.66,0,0,1,300,426ZM186.14,344.06a12.92,12.92,0,0,0,0,23.12l84.91,42.45a65.81,65.81,0,0,0,57.9,0l84.91-42.45a12.92,12.92,0,0,0,0-23.12L367.69,321l7.89,22.11a4.57,4.57,0,0,1,.28,1.6c0,25.64-45.27,37.58-75.86,37.58s-75.86-11.94-75.86-37.58a4.57,4.57,0,0,1,.28-1.6L232.31,321Zm47.56,1.38v.15c.61,7.59,9.09,14.67,23.88,19.92a128.31,128.31,0,0,0,84.81,0c14.8-5.25,23.28-12.33,23.89-19.92v-.15l-8.68-24.3-.77.7c-6.86,6.23-23.37,16.67-56.85,16.67s-50-10.44-56.85-16.67l-.77-.7Zm12.39-34.68.2.29C251.94,319.32,269.4,329,300,329s48.06-9.65,53.71-17.92l.2-.29-10.43-29.22-.77.67c-9.21,8-24.78,12.56-42.71,12.56s-33.5-4.58-42.71-12.56l-.77-.67Zm14.12-39.56.21.29c5.81,8.35,21.34,13.73,39.58,13.73s33.77-5.39,39.58-13.73l.21-.29L330,243.65l-.73.44C321.53,248.69,311.7,251,300,251s-21.53-2.33-29.22-6.93l-.73-.44ZM300,196.33a18.57,18.57,0,0,0-17.44,12.29l-9.2,25.76.43.31c4.33,3.1,12.39,6.79,26.21,6.79s21.88-3.69,26.21-6.79l.43-.31-9.2-25.77A18.58,18.58,0,0,0,300,196.33Z"/></svg>