<svg id="Camada_1" data-name="Camada 1" xmlns="http://www.w3.org/2000/svg" viewBox="150 150 300 300"><defs><style>.cls-1{fill:#ec8f6a;}</style></defs><path class="cls-1" d="M183.34,408.73a21.12,21.12,0,0,1-7-41l2.5-.89v-29a118.94,118.94,0,0,1,24.69-72.78,123.64,123.64,0,0,1,56.33-41l2.37-.84.13-2.52a21.08,21.08,0,0,1,21.09-20.09h33.18a21.08,21.08,0,0,1,21.09,20.09l.13,2.52,2.37.84a123.64,123.64,0,0,1,56.33,41,118.94,118.94,0,0,1,24.69,72.78v29l2.5.89a21.12,21.12,0,0,1-7,41Zm0-33.17a12.05,12.05,0,1,0,0,24.1H416.66a12.05,12.05,0,1,0,0-24.1Zm154.37-9.07h74.42V337.85a112.07,112.07,0,0,0-34.89-80.6l-6.36-6.06v36.9a4.54,4.54,0,0,1-9.07,0V244.9l-1.73-1.11a112.58,112.58,0,0,0-17.17-9l-5.2-2.16Zm-54.3-156.8a12.06,12.06,0,0,0-12.05,12.05V366.49h57.28V221.74a12.06,12.06,0,0,0-12.05-12.05Zm-60.65,47.56a112.07,112.07,0,0,0-34.89,80.6v28.64h74.42V232.66l-5.2,2.16a111.69,111.69,0,0,0-17.17,9l-1.73,1.11v43.19a4.54,4.54,0,0,1-9.07,0v-36.9Z"/></svg>