<svg xmlns="http://www.w3.org/2000/svg" viewBox="0 0 70 89.54"><defs><style>.cls-1{fill:#ff8f68;}.cls-2{fill:none;}</style></defs><g id="Layer_2" data-name="Layer 2"><g id="Layer_1-2" data-name="Layer 1"><path class="cls-1" d="M70,51.93c0,11.41,0,22.83,0,34.24a3.27,3.27,0,0,1-3.39,3.37q-23.29,0-46.6,0a3.05,3.05,0,0,1-3.34-3.32c0-1.11,0-2.23,0-3.34,0-.42-.14-.52-.53-.51-1.53,0-3.06,0-4.59,0a3,3,0,0,1-3.11-2.86c-.07-1.15,0-2.3,0-3.45,0-1,0-.83-.81-.83H3.28A3,3,0,0,1,0,71.93V47C0,32.47,0,18,0,3.44A3.29,3.29,0,0,1,3.43,0Q26.7,0,50,0a3.08,3.08,0,0,1,3.38,3.35c0,1.08,0,2.16,0,3.23,0,.45.11.6.58.59,1.54,0,3.1,0,4.64,0a3,3,0,0,1,3.19,3.19c0,1.16,0,2.33,0,3.5,0,.35.1.46.46.46,1.54,0,3.09,0,4.64,0A3,3,0,0,1,70,17.47ZM2.69,37.66v34c0,.91,0,.91.92.91H49.72c1,0,1,0,1-1V3.67c0-1,0-1-1-1H3.64c-.94,0-1,0-1,.94Zm56.38,7.15V10.68c0-.8,0-.83-.84-.83h-4.1c-.89,0-.78-.09-.78.79q0,30.62,0,61.22A3.26,3.26,0,0,1,50,75.23c-11.32,0-22.65,0-34,0-1.44,0-2.88,0-4.32,0-.46,0-.64.08-.62.59,0,1,0,1.93,0,2.9s0,1,1,1h46c1,0,1,0,1-1Zm8.24,7.1V17.78c0-.74,0-.78-.77-.78-1.33,0-2.66,0-4,0-.92,0-.8-.11-.8.77q0,30.58,0,61.16a3.3,3.3,0,0,1-3.48,3.45c-12.63,0-25.27,0-37.91,0a4,4,0,0,1-.49,0c-.44,0-.61.11-.59.57,0,1,0,2,0,3s0,.91.89.91H66.43c.85,0,.88,0,.88-.9Z"/><path class="cls-2" d="M2.69,37.66v-34c0-.92,0-.94,1-.94H49.7c1,0,1,0,1,1V71.56c0,1,0,1-1,1H3.61c-.92,0-.92,0-.92-.91ZM26.63,27.05H41.29a5,5,0,0,0,.55,0A1.34,1.34,0,0,0,43,25.75a1.3,1.3,0,0,0-1.11-1.35,4.73,4.73,0,0,0-.65,0H12.1c-.23,0-.47,0-.71.05a1.1,1.1,0,0,0-.62.32,1.3,1.3,0,0,0-.32,1.5,1.35,1.35,0,0,0,1.36.82C16.75,27,21.69,27.05,26.63,27.05Zm.05,19.25H41.29a5,5,0,0,0,.55,0A1.33,1.33,0,0,0,43,45a1.29,1.29,0,0,0-1.11-1.34,3.55,3.55,0,0,0-.65,0H12.1a5.78,5.78,0,0,0-.71.05,1.08,1.08,0,0,0-.62.31,1.31,1.31,0,0,0-.32,1.5,1.34,1.34,0,0,0,1.36.82Zm0-32.07H41.4a1.48,1.48,0,0,0,1.47-.74,1.35,1.35,0,0,0-1.39-2H11.88a1.82,1.82,0,0,0-.33,0,1.34,1.34,0,0,0-.12,2.64,3.49,3.49,0,0,0,.65,0Zm0,16.55H12.07a4.82,4.82,0,0,0-.54,0,1.33,1.33,0,0,0-1.18,1.3,1.28,1.28,0,0,0,1.05,1.33,3.25,3.25,0,0,0,.76.06H41.21a4.64,4.64,0,0,0,.65,0,1.27,1.27,0,0,0,1.07-.83,1.36,1.36,0,0,0-1.43-1.84Zm0,19.26H12.1a5,5,0,0,0-.55,0,1.31,1.31,0,0,0-1.2,1.27,1.27,1.27,0,0,0,1,1.35,3.79,3.79,0,0,0,.82.07h29a4,4,0,0,0,.6,0,1.31,1.31,0,0,0,1.16-.87c.35-1-.33-1.81-1.46-1.81Zm0-32.08H11.81a1.34,1.34,0,0,0-1.46,1.5c.09.74.64,1.15,1.53,1.15H41.8a1.25,1.25,0,0,0,1.06-.68,1.33,1.33,0,0,0-1.3-2Zm0,21.91H41.62A1.27,1.27,0,0,0,42.94,39a1.33,1.33,0,0,0-1.36-1.79H11.83a1.4,1.4,0,0,0-1.24.56,1.26,1.26,0,0,0-.09,1.39,1.28,1.28,0,0,0,1.26.71Zm7.42,27.67a2.28,2.28,0,0,0,1.86-1q3.18-3.9,6.37-7.78a1.4,1.4,0,0,0,.37-.66A1.34,1.34,0,0,0,40.33,57c-2,2.41-4,4.81-5.92,7.23-.26.32-.4.36-.7,0-.8-.82-1.63-1.61-2.46-2.41a1.34,1.34,0,1,0-1.91,1.88c1.08,1.08,2.18,2.14,3.28,3.21A2.09,2.09,0,0,0,34.11,67.54Z"/><path class="cls-2" d="M59.07,44.81V78.73c0,1,0,1-1,1h-46c-1,0-1,0-1-1s0-1.94,0-2.9c0-.51.16-.6.62-.59,1.44,0,2.88,0,4.32,0,11.32,0,22.65,0,34,0a3.26,3.26,0,0,0,3.37-3.37q0-30.61,0-61.22c0-.88-.11-.79.78-.79h4.1c.8,0,.84,0,.84.83V44.81Z"/><path class="cls-2" d="M67.31,51.91v34c0,.86,0,.9-.88.9H20.21c-.85,0-.89,0-.89-.91s0-2,0-3c0-.46.15-.62.59-.57a4,4,0,0,0,.49,0c12.64,0,25.28,0,37.91,0a3.3,3.3,0,0,0,3.48-3.45q-.06-30.57,0-61.16c0-.88-.12-.77.8-.77,1.33,0,2.66,0,4,0,.73,0,.77,0,.77.78Z"/><path class="cls-1" d="M26.63,27.05c-4.94,0-9.88,0-14.82,0a1.35,1.35,0,0,1-1.36-.82,1.3,1.3,0,0,1,.32-1.5,1.1,1.1,0,0,1,.62-.32c.24,0,.48-.05.71-.05H41.26a4.73,4.73,0,0,1,.65,0A1.3,1.3,0,0,1,43,25.75,1.34,1.34,0,0,1,41.84,27a5,5,0,0,1-.55,0Z"/><path class="cls-1" d="M26.68,46.3H11.81a1.34,1.34,0,0,1-1.36-.82,1.31,1.31,0,0,1,.32-1.5,1.08,1.08,0,0,1,.62-.31,5.78,5.78,0,0,1,.71-.05H41.26a3.55,3.55,0,0,1,.65,0A1.29,1.29,0,0,1,43,45a1.33,1.33,0,0,1-1.18,1.29,5,5,0,0,1-.55,0Z"/><path class="cls-1" d="M26.68,14.23H12.08a3.49,3.49,0,0,1-.65,0,1.34,1.34,0,0,1,.12-2.64,1.82,1.82,0,0,1,.33,0h29.6a1.35,1.35,0,0,1,1.39,2,1.48,1.48,0,0,1-1.47.74H26.68Z"/><path class="cls-1" d="M26.68,30.78H41.5a1.36,1.36,0,0,1,1.43,1.84,1.27,1.27,0,0,1-1.07.83,4.64,4.64,0,0,1-.65,0h-29a3.25,3.25,0,0,1-.76-.06,1.28,1.28,0,0,1-1.05-1.33,1.33,1.33,0,0,1,1.18-1.3,4.82,4.82,0,0,1,.54,0Z"/><path class="cls-1" d="M26.71,50H41.48c1.13,0,1.81.85,1.46,1.81a1.31,1.31,0,0,1-1.16.87,4,4,0,0,1-.6,0h-29a3.79,3.79,0,0,1-.82-.07,1.27,1.27,0,0,1-1-1.35,1.31,1.31,0,0,1,1.2-1.27,5,5,0,0,1,.55,0Z"/><path class="cls-1" d="M26.69,18H41.56a1.33,1.33,0,0,1,1.3,2,1.25,1.25,0,0,1-1.06.68H11.88c-.89,0-1.44-.41-1.53-1.15A1.34,1.34,0,0,1,11.81,18Z"/><path class="cls-1" d="M26.69,39.87H11.76a1.28,1.28,0,0,1-1.26-.71,1.26,1.26,0,0,1,.09-1.39,1.4,1.4,0,0,1,1.24-.56H41.58A1.33,1.33,0,0,1,42.94,39a1.27,1.27,0,0,1-1.32.85H26.69Z"/><path class="cls-1" d="M34.11,67.54A2.09,2.09,0,0,1,32.62,67c-1.1-1.07-2.2-2.13-3.28-3.21a1.34,1.34,0,1,1,1.91-1.88c.83.8,1.66,1.59,2.46,2.41.3.32.44.28.7,0,2-2.42,3.94-4.82,5.92-7.23a1.34,1.34,0,0,1,2.38,1.11,1.4,1.4,0,0,1-.37.66Q39.16,62.68,36,66.57A2.28,2.28,0,0,1,34.11,67.54Z"/></g></g></svg>