<svg width="1770" height="1669" viewBox="0 0 1770 1669" fill="none" xmlns="http://www.w3.org/2000/svg">
<path d="M1661.33 385L1661.33 435.808C1661.33 465.515 1637.24 489.61 1607.53 489.61L1555 489.61L1555 385L1661.33 385Z" stroke="#EC8F6A" stroke-opacity="0.3" stroke-width="3" stroke-miterlimit="10"/>
<path d="M1555 586.812L1555 637.62C1555 667.327 1579.09 691.421 1608.8 691.421L1661.33 691.421L1661.33 586.812L1555 586.812Z" stroke="#EC8F6A" stroke-opacity="0.3" stroke-width="3" stroke-miterlimit="10"/>
<path d="M1661.33 691.346L1661.33 742.155C1661.33 771.862 1685.42 795.956 1715.13 795.956L1767.66 795.956L1767.66 691.346L1661.33 691.346Z" stroke="#EC8F6A" stroke-opacity="0.3" stroke-width="3" stroke-miterlimit="10"/>
<path d="M141.331 412.956V362.148C141.331 332.441 165.426 308.346 195.133 308.346H247.662V412.956H141.331Z" stroke="#EC8F6A" stroke-opacity="0.3" stroke-width="3" stroke-miterlimit="10"/>
<path d="M247.662 211.145V160.336C247.662 130.629 223.567 106.535 193.861 106.535H141.331V211.145H247.662Z" stroke="#EC8F6A" stroke-opacity="0.3" stroke-width="3" stroke-miterlimit="10"/>
<path d="M141.332 106.61V55.8013C141.332 26.0946 117.237 1.99988 87.5306 1.99988H35.0012V106.61H141.332Z" stroke="#EC8F6A" stroke-opacity="0.3" stroke-width="3" stroke-miterlimit="10"/>
<path d="M412.957 1560.33L362.149 1560.33C332.442 1560.33 308.347 1536.24 308.347 1506.53L308.347 1454L412.957 1454L412.957 1560.33Z" stroke="#EC8F6A" stroke-opacity="0.3" stroke-width="3" stroke-miterlimit="10"/>
<path d="M211.145 1454L160.336 1454C130.629 1454 106.535 1478.09 106.535 1507.8L106.535 1560.33L211.145 1560.33L211.145 1454Z" stroke="#EC8F6A" stroke-opacity="0.3" stroke-width="3" stroke-miterlimit="10"/>
<path d="M106.611 1560.33L55.803 1560.33C26.0963 1560.33 2.00157 1584.43 2.00157 1614.13L2.00157 1666.66L106.611 1666.66L106.611 1560.33Z" stroke="#EC8F6A" stroke-opacity="0.3" stroke-width="3" stroke-miterlimit="10"/>
</svg>
