<svg id="Camada_1" data-name="Camada 1" xmlns="http://www.w3.org/2000/svg" viewBox="150 150 300 300"><defs><style>.cls-1{fill:#ec8f6a;}</style></defs><path class="cls-1" d="M205.58,405.13a4,4,0,0,1-3.84-5.32L220,346a4.09,4.09,0,0,1,1-1.59L265.35,300l-62.63-62.64a4,4,0,0,1,0-5.72l35.59-35.59a4.06,4.06,0,0,1,5.72,0l62.63,62.64,58.92-58.92a16.6,16.6,0,0,1,23.46,0l17.86,17.86a16.57,16.57,0,0,1,0,23.48L348,300l62.63,62.64a4,4,0,0,1,0,5.72L375,404a4.06,4.06,0,0,1-5.72,0l-62.64-62.64-44.42,44.42a4.12,4.12,0,0,1-1.58,1l-53.82,18.22A4.1,4.1,0,0,1,205.58,405.13Zm106.8-69.54,59.78,59.78L402,365.5l-21-21-6,6a4,4,0,0,1-5.72-5.72l6-6-12.08-12.07-6,6A4,4,0,0,1,351.5,327l6-6-15.29-15.29ZM211.91,394.75l40-13.67-26.29-26.29Zm35.4-29.67,12.07,12.07L367.15,269.39l-12.08-12.08Zm-17.8-17.8,12.08,12.08L349.35,251.59l-12.07-12.08ZM211.3,234.5l59.77,59.78,29.87-29.87-15.28-15.29-6,6a4,4,0,1,1-5.72-5.72l6-6-12.08-12.07-6,6a4,4,0,0,1-6.9-2.86,4,4,0,0,1,1.18-2.86l6-6-21-21Zm131.7-.71,29.87,29.88,12.07-12.08-29.87-29.87ZM377.32,203a8.46,8.46,0,0,0-6,2.49L360.79,216l29.87,29.87,10.49-10.49a8.51,8.51,0,0,0,0-12l-17.86-17.86A8.43,8.43,0,0,0,377.32,203Z"/></svg>