<svg id="Camada_1" data-name="Camada 1" xmlns="http://www.w3.org/2000/svg" viewBox="150 150 300 300"><defs><style>.cls-1{fill:#ec8f6a;}</style></defs><path class="cls-1" d="M421.09,333.65h-58.3V306.74a97.92,97.92,0,0,0-17.39-55.87l2.44-30.34A13.47,13.47,0,0,0,343,209.08a123.84,123.84,0,0,0-44-23,13.35,13.35,0,0,0-12.9,3.35l-19.32,18.76c-.87,0-1.77-.13-2.67-.13a98.77,98.77,0,0,0-98.66,98.66v80.73a26.94,26.94,0,0,0,26.9,26.91h139a31.4,31.4,0,0,0,31-26.91h40.72v13.45a13.46,13.46,0,0,0,13.45,13.46h4.49a13.46,13.46,0,0,0,13.45-13.46V347.11a13.46,13.46,0,0,0-13.45-13.46ZM292.38,195.85a4.31,4.31,0,0,1,4.18-1.13A114.92,114.92,0,0,1,337.34,216a4.51,4.51,0,0,1,1.56,3.8l-1.68,20.82c-1.11-1.23-2.15-2.5-3.33-3.68a97.77,97.77,0,0,0-55.3-27.72Zm-73.1,209.56H192.36a17.94,17.94,0,0,1-17.93-17.94V347.11a4.48,4.48,0,0,1,4.48-4.49h3.45a4.48,4.48,0,0,1,3.93,2.33,98,98,0,0,0,39.61,39.77,4.45,4.45,0,0,1,2.35,3.92v12.28a4.49,4.49,0,0,1-4.49,4.49ZM353.82,383a22.47,22.47,0,0,1-22.43,22.43h-95a13.26,13.26,0,0,0,.82-4.49V388.64a13.31,13.31,0,0,0-7.21-11.9,90.54,90.54,0,0,1-35.84-36.1,13.45,13.45,0,0,0-11.8-7h-3.45a13.21,13.21,0,0,0-4.48.83V306.74a89.7,89.7,0,0,1,179.39,0Zm9-4.48V342.62h13.45v9a4.49,4.49,0,1,0,9,0v-9h17.94V378.5Zm62.78,22.42a4.48,4.48,0,0,1-4.48,4.49H416.6a4.49,4.49,0,0,1-4.48-4.49v-58.3h9a4.48,4.48,0,0,1,4.48,4.49Zm0,0"/><path class="cls-1" d="M309,378.5a17.94,17.94,0,1,0,17.94-17.94A17.94,17.94,0,0,0,309,378.5Zm26.91,0a9,9,0,1,1-9-9,9,9,0,0,1,9,9Zm0,0"/><path class="cls-1" d="M264.12,261.9a49.33,49.33,0,1,0,49.33,49.33,49.33,49.33,0,0,0-49.33-49.33Zm0,89.69a40.37,40.37,0,1,1,40.36-40.36,40.36,40.36,0,0,1-40.36,40.36Zm0,0"/></svg>